<svg width="30" height="30" viewBox="0 0 30 30" fill="none" xmlns="http://www.w3.org/2000/svg">
<path d="M27.8124 8.88127C27.0862 7.14816 26.0298 5.57288 24.7021 4.24322C23.3782 2.91126 21.8057 1.85227 20.0737 1.12637C18.2994 0.37913 16.3931 -0.00390021 14.4679 2.99403e-05H14.4032C12.445 0.00973975 10.5516 0.398132 8.76825 1.16197C7.05114 1.89532 5.49337 2.95619 4.18198 4.28529C2.86705 5.61196 1.82273 7.18173 1.10721 8.90716C0.364461 10.7014 -0.0118937 12.6261 0.000286461 14.568C0.00999627 16.8142 0.547273 19.0442 1.55062 21.038V25.9576C1.55062 26.7797 2.21736 27.4464 3.03622 27.4464H7.94939C9.95243 28.4572 12.1628 28.989 14.4064 29H14.4744C16.4099 29 18.2839 28.6246 20.0511 27.8898C21.7743 27.1726 23.3409 26.126 24.6632 24.8086C25.9967 23.4848 27.0454 21.9377 27.7801 20.2126C28.5407 18.426 28.9291 16.5261 28.9388 14.5647C28.9452 12.5937 28.5633 10.6808 27.8124 8.88127ZM8.00765 16.0536C7.15318 16.0536 6.45731 15.3577 6.45731 14.5C6.45731 13.6423 7.15318 12.9464 8.00765 12.9464C8.86211 12.9464 9.55798 13.6423 9.55798 14.5C9.55798 15.3577 8.86535 16.0536 8.00765 16.0536ZM14.4679 16.0536C13.6134 16.0536 12.9176 15.3577 12.9176 14.5C12.9176 13.6423 13.6134 12.9464 14.4679 12.9464C15.3224 12.9464 16.0182 13.6423 16.0182 14.5C16.0182 15.3577 15.3224 16.0536 14.4679 16.0536ZM20.9282 16.0536C20.0737 16.0536 19.3778 15.3577 19.3778 14.5C19.3778 13.6423 20.0737 12.9464 20.9282 12.9464C21.7826 12.9464 22.4785 13.6423 22.4785 14.5C22.4785 15.3577 21.7826 16.0536 20.9282 16.0536Z" fill="#2A2A2A"/>
</svg>
