<svg width="30" height="30" viewBox="0 0 30 30" fill="none" xmlns="http://www.w3.org/2000/svg">
<path fill-rule="evenodd" clip-rule="evenodd" d="M5.75273 3.31905C5.75273 2.96707 9.39012 0.5 13.0017 0.5C16.6133 0.5 20.2507 2.96707 20.2507 3.31905C20.2507 4.57554 20.117 5.31977 20.0042 5.72491C19.9293 5.99071 19.6805 6.1381 19.4042 6.1381H6.59926C6.32299 6.1381 6.07411 5.99071 5.9992 5.72491C5.88644 5.31977 5.75273 4.57554 5.75273 3.31905ZM11.7936 2.91633C11.5799 2.91633 11.3751 3.00119 11.224 3.15224C11.073 3.30329 10.9881 3.50816 10.9881 3.72177C10.9881 3.93539 11.073 4.14026 11.224 4.29131C11.3751 4.44236 11.5799 4.52722 11.7936 4.52722H14.2099C14.4235 4.52722 14.6284 4.44236 14.7794 4.29131C14.9305 4.14026 15.0153 3.93539 15.0153 3.72177C15.0153 3.50816 14.9305 3.30329 14.7794 3.15224C14.6284 3.00119 14.4235 2.91633 14.2099 2.91633H11.7936ZM6.58878 11.1464C3.90666 10.3167 4.58323 8.83473 5.60614 7.74899H20.6212C21.4395 8.79446 21.8785 10.2048 19.405 11.0489C19.4318 11.2878 19.4453 11.5303 19.4453 11.7762C19.4449 12.6487 19.2674 13.5121 18.9234 14.3139C18.5794 15.1158 18.0762 15.8394 17.4442 16.4409C16.8122 17.0425 16.0646 17.5094 15.2468 17.8134C14.4289 18.1174 13.5579 18.2522 12.6864 18.2095C11.815 18.1668 10.9612 17.9475 10.177 17.5651C9.39283 17.1826 8.69447 16.6448 8.12431 15.9844C7.55414 15.3239 7.12404 14.5545 6.8601 13.7229C6.59615 12.8913 6.50384 12.0147 6.58878 11.1464ZM12.7826 11.7762C14.9106 11.7762 16.5602 11.6634 17.8247 11.4669C17.8312 11.5689 17.8344 11.672 17.8344 11.7762C17.8338 12.4212 17.7042 13.0595 17.453 13.6535C17.2019 14.2476 16.8344 14.7854 16.3722 15.2352C15.91 15.685 15.3625 16.0378 14.7618 16.2727C14.1612 16.5076 13.5196 16.6199 12.8748 16.6029C12.2301 16.586 11.5953 16.4402 11.0078 16.1741C10.4203 15.908 9.89199 15.5269 9.45405 15.0535C9.0161 14.58 8.67735 14.0237 8.45777 13.4173C8.23819 12.8108 8.14222 12.1666 8.17551 11.5225C9.35387 11.6852 10.8641 11.7762 12.7826 11.7762ZM19.7811 23.5357C19.0527 22.3989 18.0499 21.4638 16.8652 20.8163C15.6805 20.1688 14.3518 19.8299 13.0017 19.8306C11.651 19.8296 10.3218 20.1686 9.13664 20.8164C7.95143 21.4642 6.94836 22.3999 6.21989 23.5373C5.94893 23.1214 5.53387 22.8202 5.05442 22.6916L3.4983 22.2752C2.98252 22.1369 2.43294 22.2091 1.97044 22.476C1.50793 22.7429 1.17038 23.1826 1.03203 23.6984L0.407006 26.0326C0.338553 26.288 0.321088 26.5544 0.355607 26.8166C0.390126 27.0788 0.475954 27.3316 0.60819 27.5606C0.740425 27.7897 0.916477 27.9904 1.12629 28.1514C1.33611 28.3123 1.57558 28.4304 1.83103 28.4988L3.38634 28.916C3.64799 28.9861 3.9211 29.0027 4.18931 28.9648C4.45752 28.9269 4.71533 28.8352 4.94729 28.6954C4.94793 28.909 5.03341 29.1136 5.18491 29.2642C5.33641 29.4148 5.54153 29.499 5.75515 29.4984C5.96877 29.4977 6.17338 29.4123 6.32398 29.2608C6.47457 29.1093 6.55882 28.9041 6.55818 28.6905V27.8851C6.55818 27.5779 6.57912 27.2764 6.621 26.9806L10.8125 28.1042C11.0071 28.5206 11.3164 28.8729 11.7042 29.1198C12.0919 29.3666 12.5421 29.4977 13.0017 29.4977C13.4614 29.4977 13.9115 29.3666 14.2993 29.1198C14.687 28.8729 14.9964 28.5206 15.1909 28.1042L19.3824 26.9806C19.4238 27.2764 19.4447 27.5779 19.4453 27.8851V28.6905C19.4442 28.9041 19.528 29.1094 19.6783 29.2612C19.8286 29.413 20.0331 29.4989 20.2467 29.5C20.4603 29.5011 20.6656 29.4172 20.8174 29.2669C20.9692 29.1166 21.0551 28.9122 21.0562 28.6986C21.5072 28.9692 22.0646 29.0634 22.6131 28.916L24.1692 28.4996C24.4246 28.4312 24.6641 28.3131 24.8739 28.1522C25.0837 27.9912 25.2598 27.7905 25.392 27.5614C25.5243 27.3324 25.6101 27.0796 25.6446 26.8174C25.6791 26.5552 25.6617 26.2888 25.5932 26.0334L24.9674 23.6992C24.829 23.1834 24.4915 22.7437 24.029 22.4768C23.5665 22.2099 23.0169 22.1377 22.5011 22.276L20.945 22.6924C20.4667 22.8205 20.0523 23.1213 19.7811 23.5357ZM7.04386 25.4253C7.4792 24.3732 8.18519 23.4552 9.09013 22.7642C9.99507 22.0733 11.0667 21.6342 12.1963 21.4915V24.801C11.8351 24.9287 11.5094 25.1403 11.2461 25.4186C10.9829 25.6969 10.7895 26.0338 10.682 26.4014L7.04386 25.4253ZM18.9596 25.4253C18.5242 24.3732 17.8183 23.4552 16.9133 22.7642C16.0084 22.0733 14.9367 21.6342 13.8072 21.4915V24.801C14.5353 25.0588 15.1039 25.6548 15.3214 26.4014L18.9596 25.4253ZM13.0017 27.8851C13.2153 27.8851 13.4202 27.8002 13.5713 27.6492C13.7223 27.4981 13.8072 27.2932 13.8072 27.0796C13.8072 26.866 13.7223 26.6611 13.5713 26.5101C13.4202 26.359 13.2153 26.2742 13.0017 26.2742C12.7881 26.2742 12.5832 26.359 12.4322 26.5101C12.2811 26.6611 12.1963 26.866 12.1963 27.0796C12.1963 27.2932 12.2811 27.4981 12.4322 27.6492C12.5832 27.8002 12.7881 27.8851 13.0017 27.8851Z" fill="#2A2A2A"/>
</svg>
