<svg width="30" height="30" viewBox="0 0 30 30" fill="none" xmlns="http://www.w3.org/2000/svg">
<path fill-rule="evenodd" clip-rule="evenodd" d="M1.2874 1.41826C1.87535 0.830308 2.67279 0.5 3.50428 0.5H26.4953C27.3268 0.5 28.1242 0.830308 28.7121 1.41826C29.3001 2.00621 29.6304 2.80365 29.6304 3.63514V16.1757C29.6304 17.0072 29.3001 17.8046 28.7121 18.3926C28.1242 18.9805 27.3268 19.3108 26.4953 19.3108H3.50428C2.67279 19.3108 1.87535 18.9805 1.2874 18.3926C0.699449 17.8046 0.369141 17.0072 0.369141 16.1757V3.63514C0.369141 2.80365 0.699449 2.00621 1.2874 1.41826ZM15.9235 2.61529C16.1684 2.86027 16.3061 3.19254 16.3061 3.53899V4.40638C16.9035 4.51239 17.4621 4.77508 17.9248 5.16763C18.3875 5.56017 18.7377 6.0685 18.9396 6.64068C19.0035 6.80387 19.0338 6.97824 19.0289 7.1534C19.024 7.32857 18.9839 7.50096 18.911 7.66031C18.8381 7.81965 18.7338 7.9627 18.6045 8.08093C18.4752 8.19917 18.3233 8.29017 18.1581 8.34852C17.9929 8.40687 17.8176 8.43138 17.6427 8.42059C17.4678 8.4098 17.2968 8.36393 17.14 8.28571C16.9832 8.20748 16.8437 8.09851 16.7299 7.96528C16.6161 7.83204 16.5302 7.67726 16.4775 7.51016C16.4211 7.3508 16.3166 7.21289 16.1785 7.11553C16.0403 7.01817 15.8753 6.96617 15.7062 6.96674H14.0634C13.9177 6.96555 13.7768 7.01855 13.668 7.11544C13.6159 7.16189 13.5729 7.21684 13.5405 7.27743C14.2159 7.38552 14.7874 7.80451 15.1038 8.38302L16.4398 8.67434C17.2157 8.84388 17.9087 9.27739 18.4005 9.90091C18.4232 9.92961 18.4453 9.95863 18.467 9.98797L20.462 7.99289L21.8762 9.40711L19.1353 12.1481C19.1075 12.9224 18.8183 13.6651 18.314 14.2547C17.7977 14.8582 17.0881 15.2638 16.3061 15.4023V16.2718C16.3061 16.6183 16.1684 16.9505 15.9235 17.1955C15.6785 17.4405 15.3462 17.5781 14.9998 17.5781C14.6561 17.5781 14.3264 17.4427 14.082 17.2014L13.1762 18.1071L11.762 16.6929L13.1824 15.2725C12.1926 14.9334 11.4075 14.1554 11.06 13.1701C10.9579 12.847 10.9854 12.4969 11.1367 12.1936C11.2879 11.8904 11.5511 11.6578 11.8706 11.545C12.0709 11.4743 12.2834 11.454 12.49 11.4835C11.6344 11.1909 11.0191 10.3798 11.0191 9.425C11.0191 9.20489 11.0518 8.99242 11.1126 8.79217C10.9292 8.35412 10.8441 7.87748 10.8681 7.39634C10.9056 6.63994 11.2101 5.92135 11.7274 5.36821C12.2447 4.81506 12.9413 4.46317 13.6935 4.37503V3.53899C13.6935 3.19254 13.8311 2.86027 14.0761 2.61529C14.3211 2.37031 14.6533 2.23268 14.9998 2.23268C15.3462 2.23268 15.6785 2.37031 15.9235 2.61529ZM13.1941 11.6C13.7886 11.6 14.3273 11.3615 14.7199 10.9751L15.8818 11.2284C16.0832 11.2666 16.2628 11.3794 16.3849 11.5441C16.4668 11.6547 16.5187 11.7834 16.5373 11.9176L15.6109 12.8441H14.2933C14.1243 12.8446 13.9593 12.7926 13.8211 12.6953C13.6829 12.5979 13.5784 12.46 13.5221 12.3006C13.3986 11.9851 13.1573 11.7299 12.8492 11.5889C12.828 11.5792 12.8066 11.5701 12.7851 11.5616C12.9176 11.5868 13.0543 11.6 13.1941 11.6ZM7.22533 8.79697C6.93135 8.50299 6.53263 8.33784 6.11689 8.33784C5.70114 8.33784 5.30243 8.50299 5.00845 8.79697C4.71447 9.09094 4.54932 9.48966 4.54932 9.90541C4.54932 10.3211 4.71447 10.7199 5.00845 11.0138C5.30243 11.3078 5.70114 11.473 6.11689 11.473C6.53263 11.473 6.93135 11.3078 7.22533 11.0138C7.5193 10.7199 7.68446 10.3211 7.68446 9.90541C7.68446 9.48966 7.5193 9.09094 7.22533 8.79697ZM24.9911 8.79697C24.6971 8.50299 24.2984 8.33784 23.8827 8.33784C23.4669 8.33784 23.0682 8.50299 22.7742 8.79697C22.4802 9.09094 22.3151 9.48966 22.3151 9.90541C22.3151 10.3211 22.4802 10.7199 22.7742 11.0138C23.0682 11.3078 23.4669 11.473 23.8827 11.473C24.2984 11.473 24.6971 11.3078 24.9911 11.0138C25.2851 10.7199 25.4502 10.3211 25.4502 9.90541C25.4502 9.48966 25.2851 9.09094 24.9911 8.79697ZM11.0809 22.4459C11.0809 21.7249 10.4956 21.1396 9.77455 21.1396C9.05346 21.1396 8.46824 21.7249 8.46824 22.4459V26.6261C8.46824 26.9726 8.60587 27.3048 8.85085 27.5498C9.09583 27.7948 9.42809 27.9324 9.77455 27.9324C10.121 27.9324 10.4533 27.7948 10.6982 27.5498C10.9432 27.3048 11.0809 26.9726 11.0809 26.6261V22.4459ZM21.4319 21.946C21.4975 22.1045 21.5313 22.2744 21.5313 22.4459V26.6261C21.5313 26.7977 21.4975 26.9675 21.4319 27.126C21.3662 27.2845 21.27 27.4285 21.1487 27.5498C21.0274 27.6711 20.8834 27.7673 20.7249 27.833C20.5664 27.8986 20.3965 27.9324 20.225 27.9324C20.0534 27.9324 19.8836 27.8986 19.7251 27.833C19.5666 27.7673 19.4226 27.6711 19.3013 27.5498C19.18 27.4285 19.0838 27.2845 19.0181 27.126C18.9525 26.9675 18.9187 26.7977 18.9187 26.6261V22.4459C18.9187 22.2744 18.9525 22.1045 19.0181 21.946C19.0838 21.7876 19.18 21.6435 19.3013 21.5222C19.4226 21.4009 19.5666 21.3047 19.7251 21.2391C19.8836 21.1734 20.0534 21.1396 20.225 21.1396C20.3965 21.1396 20.5664 21.1734 20.7249 21.2391C20.8834 21.3047 21.0274 21.4009 21.1487 21.5222C21.27 21.6435 21.3662 21.7876 21.4319 21.946ZM15.9235 23.0898C16.1684 23.3348 16.3061 23.6671 16.3061 24.0135V28.1937C16.3061 28.5401 16.1684 28.8724 15.9235 29.1174C15.6785 29.3624 15.3462 29.5 14.9998 29.5C14.6533 29.5 14.3211 29.3624 14.0761 29.1174C13.8311 28.8724 13.6935 28.5401 13.6935 28.1937V24.0135C13.6935 23.6671 13.8311 23.3348 14.0761 23.0898C14.3211 22.8448 14.6533 22.7072 14.9998 22.7072C15.3462 22.7072 15.6785 22.8448 15.9235 23.0898ZM20.4441 18.85C21.6454 18.85 22.6191 17.8762 22.6191 16.675C22.6191 15.4738 21.6454 14.5 20.4441 14.5C19.2429 14.5 18.2691 15.4738 18.2691 16.675C18.2691 17.8762 19.2429 18.85 20.4441 18.85Z" fill="#2A2A2A"/>
</svg>
