<svg width="30" height="30" viewBox="0 0 30 30" fill="none" xmlns="http://www.w3.org/2000/svg">
<path d="M29 5.4375C29 8.28086 25.6525 12.5232 24.2082 14.2168C23.993 14.466 23.6758 14.5623 23.3869 14.5H18.125C17.1225 14.5 16.3125 15.31 16.3125 16.3125C16.3125 17.315 17.1225 18.125 18.125 18.125H23.5625C26.5645 18.125 29 20.5605 29 23.5625C29 26.5645 26.5645 29 23.5625 29H7.90703C8.39981 28.4393 9.0002 27.7199 9.60625 26.9156C9.96309 26.4398 10.3313 25.9188 10.6824 25.375H23.5625C24.565 25.375 25.375 24.565 25.375 23.5625C25.375 22.56 24.565 21.75 23.5625 21.75H18.125C15.123 21.75 12.6875 19.3145 12.6875 16.3125C12.6875 13.3105 15.123 10.875 18.125 10.875H20.3793C19.1898 9.09082 18.125 7.04043 18.125 5.4375C18.125 2.43555 20.5605 0 23.5625 0C26.5645 0 29 2.43555 29 5.4375ZM6.63262 27.7029C6.41738 27.9465 6.2248 28.1617 6.06055 28.343L5.95859 28.4562L5.94727 28.4449C5.60742 28.7055 5.12031 28.6715 4.81445 28.343C3.38711 26.791 0 22.7979 0 19.9375C0 16.9355 2.43555 14.5 5.4375 14.5C8.43945 14.5 10.875 16.9355 10.875 19.9375C10.875 21.6367 9.67988 23.7324 8.41113 25.4826C7.80508 26.3152 7.18203 27.0686 6.6666 27.6633L6.63262 27.7029ZM7.25 19.9375C7.25 19.4568 7.05904 18.9958 6.71913 18.6559C6.37922 18.316 5.9182 18.125 5.4375 18.125C4.9568 18.125 4.49578 18.316 4.15587 18.6559C3.81596 18.9958 3.625 19.4568 3.625 19.9375C3.625 20.4182 3.81596 20.8792 4.15587 21.2191C4.49578 21.559 4.9568 21.75 5.4375 21.75C5.9182 21.75 6.37922 21.559 6.71913 21.2191C7.05904 20.8792 7.25 20.4182 7.25 19.9375ZM23.5625 7.25C24.0432 7.25 24.5042 7.05904 24.8441 6.71913C25.184 6.37922 25.375 5.9182 25.375 5.4375C25.375 4.9568 25.184 4.49578 24.8441 4.15587C24.5042 3.81596 24.0432 3.625 23.5625 3.625C23.0818 3.625 22.6208 3.81596 22.2809 4.15587C21.941 4.49578 21.75 4.9568 21.75 5.4375C21.75 5.9182 21.941 6.37922 22.2809 6.71913C22.6208 7.05904 23.0818 7.25 23.5625 7.25Z" fill="#2A2A2A"/>
</svg>
