<svg width="30" height="30" viewBox="0 0 30 30" fill="none" xmlns="http://www.w3.org/2000/svg">
<path d="M5.75 9.82088C5.75 7.89801 6.51386 6.0539 7.87354 4.69422C9.23321 3.33454 11.0773 2.57069 13.0002 2.57069C14.9231 2.57069 16.7672 3.33454 18.1269 4.69422C19.4865 6.0539 20.2504 7.89801 20.2504 9.82088C20.2504 10.0956 20.3595 10.359 20.5538 10.5533C20.748 10.7475 21.0114 10.8566 21.2861 10.8566C21.5608 10.8566 21.8243 10.7475 22.0185 10.5533C22.2128 10.359 22.3219 10.0956 22.3219 9.82088C22.3218 8.23115 21.9151 6.66787 21.1404 5.27963C20.3658 3.89138 19.2491 2.7243 17.8963 1.88932C16.5435 1.05434 14.9996 0.579207 13.4114 0.509076C11.8232 0.438946 10.2435 0.776151 8.82238 1.48864C7.40126 2.20113 6.18596 3.26523 5.292 4.5798C4.39804 5.89436 3.85513 7.41571 3.71487 8.99924C3.57461 10.5828 3.84166 12.1759 4.49064 13.6271C5.13962 15.0783 6.14896 16.3395 7.42273 17.2907C8.515 18.1066 9.77295 18.673 11.1079 18.9499C11.2933 19.3659 11.6107 19.7091 12.0108 19.9266C12.411 20.144 12.8716 20.2235 13.3215 20.1528C13.7714 20.0821 14.1854 19.8651 14.4996 19.5354C14.8137 19.2057 15.0105 18.7816 15.0594 18.3289C15.1083 17.8761 15.0066 17.4198 14.7701 17.0306C14.5336 16.6415 14.1754 16.3411 13.751 16.1759C13.3266 16.0108 12.8596 15.9901 12.4222 16.1171C11.9849 16.2441 11.6016 16.5117 11.3316 16.8784C9.74237 16.5026 8.32655 15.6012 7.31352 14.3203C6.30048 13.0394 5.74956 11.454 5.75 9.82088ZM6.78575 9.82088C6.78615 8.67762 7.10193 7.55663 7.69832 6.58125C8.29472 5.60587 9.14862 4.81392 10.1661 4.29253C11.1835 3.77114 12.3251 3.54052 13.4651 3.62606C14.6052 3.71159 15.6996 4.10996 16.6278 4.77732C17.5561 5.44469 18.2823 6.35519 18.7264 7.40864C19.1706 8.46209 19.3156 9.61765 19.1454 10.7482C18.9752 11.8787 18.4965 12.9404 17.7619 13.8164C17.0272 14.6924 16.0652 15.3487 14.9816 15.7132C14.4243 15.252 13.7236 14.9996 13.0002 14.9996C12.2472 14.9996 11.5574 15.2679 11.0188 15.7132C9.785 15.2982 8.71266 14.5062 7.95314 13.4489C7.19362 12.3917 6.78528 11.1227 6.78575 9.82088ZM13.0002 21.2141C13.4974 21.2143 13.9875 21.0952 14.4291 20.8668C14.8708 20.6384 15.2512 20.3074 15.5384 19.9015C15.8256 19.4955 16.0112 19.0266 16.0795 18.5341C16.1479 18.0416 16.0971 17.5399 15.9314 17.0711H21.804C22.7655 17.0711 23.6875 17.453 24.3674 18.1329C25.0472 18.8127 25.4291 19.7347 25.4291 20.6962V21.2141C25.4291 23.6926 23.8517 25.7889 21.6124 27.2141C19.3607 28.6476 16.3125 29.5 13.0002 29.5C9.6879 29.5 6.64074 28.6476 4.388 27.2141C2.14873 25.7889 0.571289 23.6926 0.571289 21.2141V20.6962C0.571289 19.7347 0.953218 18.8127 1.63306 18.1329C2.31289 17.453 3.23495 17.0711 4.19639 17.0711H5.60396C6.92863 18.4236 8.59867 19.3873 10.4326 19.8572C10.9919 20.6765 11.9344 21.2141 13.0002 21.2141Z" fill="#2A2A2A"/>
</svg>
